<?xml version="1.0" encoding="UTF-8" standalone="no"?>
<svg	xmlns="http://www.w3.org/2000/svg"
	version="1.0"
	width="800px" height="800px"
	viewBox="-1.15 -1.07 2.2 2.2">
<path	style="fill:none; stroke:#CCCCCC; stroke-width:0.002"
	d="
	M -0.900000 1.000000
	L -0.900000 -1.000000"/>
<path	style="fill:none; stroke:#CCCCCC; stroke-width:0.002"
	d="
	M -0.800000 1.000000
	L -0.800000 -1.000000"/>
<path	style="fill:none; stroke:#CCCCCC; stroke-width:0.002"
	d="
	M -0.700000 1.000000
	L -0.700000 -1.000000"/>
<path	style="fill:none; stroke:#CCCCCC; stroke-width:0.002"
	d="
	M -0.600000 1.000000
	L -0.600000 -1.000000"/>
<path	style="fill:none; stroke:#CCCCCC; stroke-width:0.002"
	d="
	M -0.500000 1.000000
	L -0.500000 -1.000000"/>
<path	style="fill:none; stroke:#CCCCCC; stroke-width:0.002"
	d="
	M -0.400000 1.000000
	L -0.400000 -1.000000"/>
<path	style="fill:none; stroke:#CCCCCC; stroke-width:0.002"
	d="
	M -0.300000 1.000000
	L -0.300000 -1.000000"/>
<path	style="fill:none; stroke:#CCCCCC; stroke-width:0.002"
	d="
	M -0.200000 1.000000
	L -0.200000 -1.000000"/>
<path	style="fill:none; stroke:#CCCCCC; stroke-width:0.002"
	d="
	M -0.100000 1.000000
	L -0.100000 -1.000000"/>
<path	style="fill:none; stroke:#CCCCCC; stroke-width:0.002"
	d="
	M 0.100000 1.000000
	L 0.100000 -1.000000"/>
<path	style="fill:none; stroke:#CCCCCC; stroke-width:0.002"
	d="
	M 0.200000 1.000000
	L 0.200000 -1.000000"/>
<path	style="fill:none; stroke:#CCCCCC; stroke-width:0.002"
	d="
	M 0.300000 1.000000
	L 0.300000 -1.000000"/>
<path	style="fill:none; stroke:#CCCCCC; stroke-width:0.002"
	d="
	M 0.400000 1.000000
	L 0.400000 -1.000000"/>
<path	style="fill:none; stroke:#CCCCCC; stroke-width:0.002"
	d="
	M 0.500000 1.000000
	L 0.500000 -1.000000"/>
<path	style="fill:none; stroke:#CCCCCC; stroke-width:0.002"
	d="
	M 0.600000 1.000000
	L 0.600000 -1.000000"/>
<path	style="fill:none; stroke:#CCCCCC; stroke-width:0.002"
	d="
	M 0.700000 1.000000
	L 0.700000 -1.000000"/>
<path	style="fill:none; stroke:#CCCCCC; stroke-width:0.002"
	d="
	M 0.800000 1.000000
	L 0.800000 -1.000000"/>
<path	style="fill:none; stroke:#CCCCCC; stroke-width:0.002"
	d="
	M 0.900000 1.000000
	L 0.900000 -1.000000"/>
<path	style="fill:none; stroke:#CCCCCC; stroke-width:0.002"
	d="
	M -1.000000 0.900000
	L 1.000000 0.900000"/>
<path	style="fill:none; stroke:#CCCCCC; stroke-width:0.002"
	d="
	M -1.000000 0.800000
	L 1.000000 0.800000"/>
<path	style="fill:none; stroke:#CCCCCC; stroke-width:0.002"
	d="
	M -1.000000 0.700000
	L 1.000000 0.700000"/>
<path	style="fill:none; stroke:#CCCCCC; stroke-width:0.002"
	d="
	M -1.000000 0.600000
	L 1.000000 0.600000"/>
<path	style="fill:none; stroke:#CCCCCC; stroke-width:0.002"
	d="
	M -1.000000 0.500000
	L 1.000000 0.500000"/>
<path	style="fill:none; stroke:#CCCCCC; stroke-width:0.002"
	d="
	M -1.000000 0.400000
	L 1.000000 0.400000"/>
<path	style="fill:none; stroke:#CCCCCC; stroke-width:0.002"
	d="
	M -1.000000 0.300000
	L 1.000000 0.300000"/>
<path	style="fill:none; stroke:#CCCCCC; stroke-width:0.002"
	d="
	M -1.000000 0.200000
	L 1.000000 0.200000"/>
<path	style="fill:none; stroke:#CCCCCC; stroke-width:0.002"
	d="
	M -1.000000 0.100000
	L 1.000000 0.100000"/>
<path	style="fill:none; stroke:#CCCCCC; stroke-width:0.002"
	d="
	M -1.000000 -0.100000
	L 1.000000 -0.100000"/>
<path	style="fill:none; stroke:#CCCCCC; stroke-width:0.002"
	d="
	M -1.000000 -0.200000
	L 1.000000 -0.200000"/>
<path	style="fill:none; stroke:#CCCCCC; stroke-width:0.002"
	d="
	M -1.000000 -0.300000
	L 1.000000 -0.300000"/>
<path	style="fill:none; stroke:#CCCCCC; stroke-width:0.002"
	d="
	M -1.000000 -0.400000
	L 1.000000 -0.400000"/>
<path	style="fill:none; stroke:#CCCCCC; stroke-width:0.002"
	d="
	M -1.000000 -0.500000
	L 1.000000 -0.500000"/>
<path	style="fill:none; stroke:#CCCCCC; stroke-width:0.002"
	d="
	M -1.000000 -0.600000
	L 1.000000 -0.600000"/>
<path	style="fill:none; stroke:#CCCCCC; stroke-width:0.002"
	d="
	M -1.000000 -0.700000
	L 1.000000 -0.700000"/>
<path	style="fill:none; stroke:#CCCCCC; stroke-width:0.002"
	d="
	M -1.000000 -0.800000
	L 1.000000 -0.800000"/>
<path	style="fill:none; stroke:#CCCCCC; stroke-width:0.002"
	d="
	M -1.000000 -0.900000
	L 1.000000 -0.900000"/>
<path	style="fill:none; stroke:#888888; stroke-width:0.002"
	d="
	M -0.500000 1.000000
	L -0.500000 -1.000000"/>
<path	style="fill:none; stroke:#888888; stroke-width:0.002"
	d="
	M 0.500000 1.000000
	L 0.500000 -1.000000"/>
<path	style="fill:none; stroke:#888888; stroke-width:0.002"
	d="
	M -1.000000 0.500000
	L 1.000000 0.500000"/>
<path	style="fill:none; stroke:#888888; stroke-width:0.002"
	d="
	M -1.000000 -0.500000
	L 1.000000 -0.500000"/>
<path	style="fill:none; stroke:#000000; stroke-width:0.004; stroke-linecap:square"
	d="
	M -1.000000 1.000000
	L -1.000000 -1.000000"/>
<path	style="fill:none; stroke:#000000; stroke-width:0.004; stroke-linecap:square"
	d="
	M 0.000000 1.000000
	L 0.000000 -1.000000"/>
<path	style="fill:none; stroke:#000000; stroke-width:0.004; stroke-linecap:square"
	d="
	M 1.000000 1.000000
	L 1.000000 -1.000000"/>
<path	style="fill:none; stroke:#000000; stroke-width:0.004; stroke-linecap:square"
	d="
	M -1.000000 1.000000
	L 1.000000 1.000000"/>
<path	style="fill:none; stroke:#000000; stroke-width:0.004; stroke-linecap:square"
	d="
	M -1.000000 0.000000
	L 1.000000 0.000000"/>
<path	style="fill:none; stroke:#000000; stroke-width:0.004; stroke-linecap:square"
	d="
	M -1.000000 -1.000000
	L 1.000000 -1.000000"/>
<text	style="font-size:0.05px; text-anchor:middle; fill:black; font-family:Arial"
	x="-1.000000" y="1.010000">−1</text>
<text	style="font-size:0.05px; text-anchor:middle; fill:black; font-family:Arial"
	x="-0.500000" y="1.010000">−0.5</text>
<text	style="font-size:0.05px; text-anchor:middle; fill:black; font-family:Arial"
	x="0.000000" y="1.010000">0</text>
<text	style="font-size:0.05px; text-anchor:middle; fill:black; font-family:Arial"
	x="0.500000" y="1.010000">0.5</text>
<text	style="font-size:0.05px; text-anchor:middle; fill:black; font-family:Arial"
	x="1.000000" y="1.010000">1</text>
<text	style="font-size:0.05px; text-anchor:end; fill:black; font-family:Arial"
	x="-1.020000" y="0.968000">−1</text>
<text	style="font-size:0.05px; text-anchor:end; fill:black; font-family:Arial"
	x="-1.020000" y="0.468000">−0.5</text>
<text	style="font-size:0.05px; text-anchor:end; fill:black; font-family:Arial"
	x="-1.020000" y="-0.032000">0</text>
<text	style="font-size:0.05px; text-anchor:end; fill:black; font-family:Arial"
	x="-1.020000" y="-0.532000">0.5</text>
<text	style="font-size:0.05px; text-anchor:end; fill:black; font-family:Arial"
	x="-1.020000" y="-1.032000">1</text>
<path	style="fill:none; stroke:#0000FF; stroke-width:0.004"
	d="
	M 0.606657 -0.626657
	L 0.646657 -0.626657"/>
<path	style="fill:none; stroke:#0000FF; stroke-width:0.004"
	d="
	M 0.626657 -0.606657
	L 0.626657 -0.646657"/>
<path	style="fill:none; stroke:#0000FF; stroke-width:0.004"
	d="
	M -0.646657 0.626657
	L -0.606657 0.626657"/>
<path	style="fill:none; stroke:#0000FF; stroke-width:0.004"
	d="
	M -0.626657 0.646657
	L -0.626657 0.606657"/>
<path	style="fill:none; stroke:#FF0000; stroke-width:0.004"
	d="
	M 0.000000 0.000000
	C 0.044043 0.000000 0.088079 -0.000000 0.132107 -0.000769
	C 0.186371 -0.001716 0.240840 -0.003834 0.295184 -0.008588
	C 0.365031 -0.014699 0.437019 -0.025369 0.508168 -0.044433
	C 0.567916 -0.060442 0.636602 -0.084921 0.704014 -0.123841
	C 0.742258 -0.145921 0.788761 -0.177651 0.833099 -0.221989
	C 0.858721 -0.247611 0.889744 -0.283563 0.916662 -0.330186
	C 0.932425 -0.357488 0.950640 -0.395130 0.963024 -0.441348
	C 0.970350 -0.468689 0.977451 -0.505799 0.977451 -0.549276
	C 0.977451 -0.575196 0.974930 -0.609831 0.964548 -0.648575
	C 0.958322 -0.671812 0.947716 -0.702330 0.929007 -0.734734
	C 0.917733 -0.754262 0.900698 -0.779360 0.875807 -0.804250
	C 0.860748 -0.819309 0.839048 -0.838061 0.810180 -0.854728
	C 0.792658 -0.864845 0.768112 -0.876726 0.737457 -0.884939
	C 0.718800 -0.889939 0.693214 -0.894831 0.662867 -0.894831
	C 0.644355 -0.894831 0.619441 -0.893012 0.591308 -0.885474
	C 0.574113 -0.880867 0.551415 -0.872972 0.527131 -0.858952
	C 0.512262 -0.850367 0.493083 -0.837343 0.473943 -0.818203
	C 0.462207 -0.806467 0.447552 -0.789499 0.434457 -0.766818
	C 0.426416 -0.752891 0.416954 -0.733332 0.410382 -0.708806
	C 0.406342 -0.693728 0.402384 -0.673008 0.402384 -0.648346
	C 0.402384 -0.633167 0.403882 -0.612708 0.410092 -0.589533
	C 0.413917 -0.575257 0.420484 -0.556388 0.432171 -0.536145
	C 0.439377 -0.523663 0.450326 -0.507547 0.466449 -0.491424
	C 0.476399 -0.481474 0.490798 -0.469041 0.510082 -0.457907
	C 0.521993 -0.451031 0.538732 -0.442936 0.559762 -0.437301
	C 0.572759 -0.433819 0.590629 -0.430408 0.611935 -0.430408
	C 0.625111 -0.430408 0.642879 -0.431711 0.663038 -0.437112
	C 0.675511 -0.440455 0.692003 -0.446196 0.709721 -0.456426
	C 0.720690 -0.462758 0.734857 -0.472386 0.749050 -0.486578
	C 0.757841 -0.495369 0.768828 -0.508096 0.778680 -0.525161
	C 0.784786 -0.535736 0.791974 -0.550605 0.796984 -0.569304
	C 0.800090 -0.580895 0.803132 -0.596840 0.803132 -0.615869
	C 0.803132 -0.627671 0.801963 -0.643591 0.797119 -0.661669
	C 0.794114 -0.672886 0.788948 -0.687719 0.779739 -0.703669
	C 0.774024 -0.713569 0.765332 -0.726358 0.752510 -0.739180
	C 0.744549 -0.747141 0.733020 -0.757093 0.717551 -0.766024
	C 0.707943 -0.771570 0.694432 -0.778101 0.677429 -0.782657
	C 0.666866 -0.785488 0.652335 -0.788259 0.634981 -0.788259
	C 0.624197 -0.788259 0.609647 -0.787190 0.593115 -0.782760
	C 0.582839 -0.780006 0.569247 -0.775272 0.554623 -0.766829
	C 0.545530 -0.761579 0.533782 -0.753594 0.521997 -0.741809
	C 0.514668 -0.734480 0.505506 -0.723864 0.497279 -0.709614
	C 0.492161 -0.700749 0.486134 -0.688281 0.481928 -0.672583
	C 0.479311 -0.662817 0.476749 -0.649378 0.476749 -0.633323
	C 0.476749 -0.623332 0.477740 -0.609850 0.481847 -0.594525
	C 0.484403 -0.584986 0.488798 -0.572368 0.496640 -0.558787
	C 0.501521 -0.550331 0.508948 -0.539406 0.519912 -0.528441
	C 0.526740 -0.521614 0.536630 -0.513079 0.549911 -0.505411
	C 0.558182 -0.500636 0.569817 -0.495013 0.584470 -0.491087
	C 0.593597 -0.488641 0.606157 -0.486247 0.621167 -0.486247
	C 0.630518 -0.486247 0.643137 -0.487175 0.657486 -0.491020
	C 0.666426 -0.493416 0.678253 -0.497536 0.690988 -0.504889
	C 0.698924 -0.509470 0.709178 -0.516441 0.719473 -0.526736
	C 0.725889 -0.533152 0.733910 -0.542448 0.741119 -0.554933
	C 0.745612 -0.562716 0.750903 -0.573665 0.754599 -0.587458
	C 0.756903 -0.596057 0.759158 -0.607890 0.759158 -0.622036
	C 0.759158 -0.630857 0.758282 -0.642759 0.754655 -0.656297
	C 0.752393 -0.664739 0.748502 -0.675907 0.741557 -0.687936
	C 0.737226 -0.695438 0.730636 -0.705131 0.720902 -0.714865
	C 0.714830 -0.720937 0.706033 -0.728527 0.694215 -0.735350
	C 0.686843 -0.739607 0.676471 -0.744618 0.663403 -0.748120
	C 0.655250 -0.750305 0.644030 -0.752443 0.630615 -0.752443
	C 0.622245 -0.752443 0.610948 -0.751611 0.598098 -0.748168
	C 0.590079 -0.746019 0.579470 -0.742322 0.568042 -0.735724
	C 0.560910 -0.731607 0.551694 -0.725341 0.542438 -0.716085
	C 0.536661 -0.710308 0.529439 -0.701937 0.522945 -0.690691
	C 0.518892 -0.683670 0.514120 -0.673793 0.510785 -0.661347
	C 0.508703 -0.653576 0.506665 -0.642883 0.506665 -0.630096
	C 0.506665 -0.622113 0.507459 -0.611339 0.510744 -0.599080
	C 0.512794 -0.591426 0.516323 -0.581301 0.522621 -0.570392
	C 0.526554 -0.563580 0.532538 -0.554778 0.541381 -0.545935
	C 0.546902 -0.540414 0.554903 -0.533511 0.565655 -0.527303
	C 0.572369 -0.523427 0.581816 -0.518863 0.593723 -0.515672
	C 0.601159 -0.513680 0.611393 -0.511730 0.623633 -0.511730
	C 0.631278 -0.511730 0.641596 -0.512490 0.653338 -0.515636
	C 0.660672 -0.517601 0.670375 -0.520982 0.680830 -0.527019
	C 0.687362 -0.530790 0.695802 -0.536528 0.704281 -0.545008
	C 0.709578 -0.550305 0.716201 -0.557981 0.722157 -0.568297
	C 0.725878 -0.574742 0.730259 -0.583811 0.733322 -0.595242
	C 0.735236 -0.602384 0.737109 -0.612214 0.737109 -0.623971
	C 0.737109 -0.631318 0.736378 -0.641234 0.733354 -0.652518
	C 0.731465 -0.659570 0.728214 -0.668899 0.722409 -0.678953
	C 0.718782 -0.685236 0.713261 -0.693354 0.705104 -0.701512
	C 0.700005 -0.706611 0.692617 -0.712984 0.682688 -0.718717
	C 0.676482 -0.722300 0.667749 -0.726519 0.656741 -0.729469
	C 0.649861 -0.731312 0.640391 -0.733116 0.629063 -0.733116
	C 0.621982 -0.733116 0.612426 -0.732412 0.601548 -0.729498
	C 0.594749 -0.727676 0.585754 -0.724541 0.576058 -0.718943
	C 0.569998 -0.715444 0.562166 -0.710119 0.554296 -0.702248
	C 0.549375 -0.697328 0.543224 -0.690198 0.537691 -0.680614
	C 0.534232 -0.674623 0.530159 -0.666192 0.527311 -0.655563
	C 0.525530 -0.648917 0.523788 -0.639771 0.523788 -0.628829
	C 0.523788 -0.621987 0.524468 -0.612753 0.527285 -0.602242
	C 0.529046 -0.595669 0.532076 -0.586974 0.537487 -0.577602
	C 0.540871 -0.571741 0.546021 -0.564168 0.553632 -0.556557
	C 0.558392 -0.551797 0.565289 -0.545847 0.574560 -0.540494
	C 0.580359 -0.537146 0.588517 -0.533205 0.598804 -0.530449
	C 0.605237 -0.528725 0.614091 -0.527038 0.624684 -0.527038
	C 0.631310 -0.527038 0.640252 -0.527697 0.650431 -0.530425
	C 0.656798 -0.532131 0.665221 -0.535067 0.674301 -0.540309
	C 0.679980 -0.543588 0.687319 -0.548578 0.694695 -0.555954
	C 0.699309 -0.560568 0.705076 -0.567254 0.710266 -0.576242
	C 0.713512 -0.581864 0.717334 -0.589775 0.720006 -0.599751
	C 0.721678 -0.605990 0.723314 -0.614578 0.723314 -0.624855
	C 0.723314 -0.631282 0.722675 -0.639959 0.720028 -0.649837
	C 0.718372 -0.656016 0.715523 -0.664191 0.710435 -0.673004
	C 0.707251 -0.678518 0.702407 -0.685642 0.695245 -0.692804
	C 0.690765 -0.697284 0.684272 -0.702885 0.675543 -0.707925
	C 0.670081 -0.711078 0.662396 -0.714791 0.652706 -0.717387
	C 0.646643 -0.719012 0.638298 -0.720601 0.628312 -0.720601
	C 0.622064 -0.720601 0.613632 -0.719980 0.604031 -0.717407
	C 0.598024 -0.715798 0.590076 -0.713027 0.581507 -0.708080
	C 0.576145 -0.704985 0.569217 -0.700273 0.562253 -0.693309
	C 0.557895 -0.688951 0.552446 -0.682635 0.547544 -0.674144
	C 0.544476 -0.668830 0.540864 -0.661353 0.538338 -0.651924
	C 0.536757 -0.646024 0.535210 -0.637903 0.535210 -0.628184
	C 0.535210 -0.622102 0.535815 -0.613894 0.538319 -0.604547
	C 0.539887 -0.598698 0.542584 -0.590960 0.547401 -0.582617
	C 0.550415 -0.577395 0.555004 -0.570648 0.561787 -0.563864
	C 0.566032 -0.559619 0.572184 -0.554312 0.580457 -0.549536
	C 0.585634 -0.546547 0.592919 -0.543028 0.602106 -0.540566
	C 0.607856 -0.539025 0.615771 -0.537518 0.625243 -0.537518
	C 0.631171 -0.537518 0.639172 -0.538108 0.648283 -0.540549
	C 0.653986 -0.542077 0.661531 -0.544707 0.669666 -0.549404
	C 0.674758 -0.552344 0.681338 -0.556818 0.687953 -0.563433
	C 0.692094 -0.567574 0.697270 -0.573575 0.701929 -0.581644
	C 0.704845 -0.586695 0.708278 -0.593802 0.710680 -0.602766
	C 0.712183 -0.608377 0.713654 -0.616099 0.713654 -0.625342
	C 0.713654 -0.631128 0.713078 -0.638937 0.710695 -0.647830
	C 0.709204 -0.653396 0.706636 -0.660761 0.702051 -0.668703
	C 0.699181 -0.673674 0.694812 -0.680099 0.688353 -0.686558
	C 0.684310 -0.690601 0.678450 -0.695656 0.670570 -0.700206
	C 0.665637 -0.703054 0.658695 -0.706407 0.649939 -0.708753
	C 0.644458 -0.710222 0.636913 -0.711659 0.627884 -0.711659
	C 0.622231 -0.711659 0.614600 -0.711096 0.605911 -0.708768
	C 0.600471 -0.707310 0.593274 -0.704801 0.585513 -0.700320
	C 0.580653 -0.697515 0.574374 -0.693245 0.568061 -0.686931
	C 0.564108 -0.682978 0.559166 -0.677250 0.554718 -0.669546
	C 0.551933 -0.664722 0.548655 -0.657935 0.546361 -0.649374
	C 0.544924 -0.644014 0.543519 -0.636636 0.543519 -0.627805
	C 0.543519 -0.622276 0.544070 -0.614813 0.546347 -0.606314
	C 0.547773 -0.600992 0.550227 -0.593951 0.554611 -0.586359
	C 0.557356 -0.581604 0.561534 -0.575460 0.567711 -0.569283
	C 0.571579 -0.565415 0.577185 -0.560579 0.584724 -0.556227
	C 0.589445 -0.553501 0.596088 -0.550292 0.604467 -0.548047
	C 0.609714 -0.546641 0.616936 -0.545266 0.625580 -0.545266
	C 0.630993 -0.545266 0.638300 -0.545805 0.646620 -0.548034
	C 0.651831 -0.549431 0.658725 -0.551834 0.666160 -0.556126
	C 0.670815 -0.558814 0.676832 -0.562906 0.682882 -0.568955
	C 0.686670 -0.572744 0.691407 -0.578235 0.695670 -0.585619
	C 0.698340 -0.590243 0.701483 -0.596751 0.703682 -0.604959
	C 0.705060 -0.610099 0.706407 -0.617175 0.706407 -0.625644
	C 0.706407 -0.630948 0.705879 -0.638107 0.703694 -0.646260
	C 0.702326 -0.651367 0.699971 -0.658123 0.695764 -0.665409
	C 0.693130 -0.669972 0.689119 -0.675869 0.683190 -0.681798
	C 0.679476 -0.685512 0.674094 -0.690155 0.666856 -0.694334
	C 0.662322 -0.696952 0.655942 -0.700033 0.647895 -0.702189
	C 0.642855 -0.703540 0.635917 -0.704861 0.627613 -0.704861
	C 0.622411 -0.704861 0.615391 -0.704343 0.607395 -0.702201
	C 0.602387 -0.700859 0.595761 -0.698549 0.588615 -0.694423
	C 0.584139 -0.691839 0.578355 -0.687905 0.572539 -0.682089
	C 0.568895 -0.678446 0.564341 -0.673166 0.560241 -0.666065
	C 0.557673 -0.661617 0.554649 -0.655358 0.552534 -0.647462
	C 0.551209 -0.642516 0.549912 -0.635709 0.549912 -0.627560
	C 0.549912 -0.622456 0.550421 -0.615566 0.552523 -0.607720
	C 0.553840 -0.602804 0.556107 -0.596301 0.560157 -0.589287
	C 0.562693 -0.584893 0.566555 -0.579216 0.572264 -0.573507
	C 0.575840 -0.569930 0.581024 -0.565459 0.587995 -0.561434
	C 0.592362 -0.558913 0.598507 -0.555944 0.606260 -0.553867
	C 0.611116 -0.552566 0.617800 -0.551293 0.625802 -0.551293
	C 0.630814 -0.551293 0.637580 -0.551792 0.645286 -0.553857
	C 0.650114 -0.555151 0.656501 -0.557377 0.663389 -0.561354
	C 0.667705 -0.563846 0.673282 -0.567639 0.678890 -0.573247
	C 0.682403 -0.576760 0.686795 -0.581852 0.690749 -0.588700
	C 0.693226 -0.592991 0.696142 -0.599028 0.698183 -0.606644
	C 0.699462 -0.611416 0.700712 -0.617983 0.700712 -0.625845
	C 0.700712 -0.630771 0.700222 -0.637420 0.698193 -0.644992
	C 0.696921 -0.649736 0.694733 -0.656013 0.690825 -0.662783
	C 0.688376 -0.667024 0.684648 -0.672506 0.679136 -0.678017
	C 0.675683 -0.681471 0.670678 -0.685788 0.663946 -0.689675
	C 0.659729 -0.692110 0.653793 -0.694976 0.646306 -0.696983
	C 0.641615 -0.698240 0.635158 -0.699469 0.627429 -0.699469
	C 0.622586 -0.699469 0.616049 -0.698987 0.608603 -0.696992
	C 0.603938 -0.695742 0.597766 -0.693590 0.591109 -0.689747
	C 0.586937 -0.687338 0.581547 -0.683673 0.576127 -0.678252
	C 0.572730 -0.674856 0.568484 -0.669933 0.564662 -0.663312
	C 0.562266 -0.659164 0.559447 -0.653326 0.557473 -0.645961
	C 0.556237 -0.641347 0.555028 -0.634996 0.555028 -0.627392
	C 0.555028 -0.622627 0.555502 -0.616196 0.557465 -0.608871
	C 0.558695 -0.604281 0.560812 -0.598209 0.564593 -0.591659
	C 0.566963 -0.587555 0.570570 -0.582251 0.575903 -0.576918
	C 0.579246 -0.573575 0.584089 -0.569397 0.590605 -0.565635
	C 0.594687 -0.563278 0.600432 -0.560503 0.607680 -0.558561
	C 0.612222 -0.557345 0.618473 -0.556154 0.625957 -0.556154
	C 0.630646 -0.556154 0.636976 -0.556621 0.644186 -0.558553
	C 0.648704 -0.559764 0.654682 -0.561848 0.661129 -0.565570
	C 0.665169 -0.567903 0.670391 -0.571454 0.675642 -0.576705
	C 0.678932 -0.579995 0.683046 -0.584764 0.686749 -0.591179
	C 0.689070 -0.595198 0.691802 -0.600855 0.693714 -0.607991
	C 0.694913 -0.612464 0.696085 -0.618619 0.696085 -0.625988
	C 0.696085 -0.630606 0.695625 -0.636840 0.693722 -0.643940
	C 0.692530 -0.648389 0.690478 -0.654276 0.686812 -0.660626
	C 0.684514 -0.664606 0.681017 -0.669748 0.675845 -0.674920
	C 0.672604 -0.678161 0.667906 -0.682213 0.661588 -0.685861
	C 0.657628 -0.688147 0.652056 -0.690838 0.645026 -0.692722
	C 0.640621 -0.693903 0.634557 -0.695057 0.627297 -0.695057
	C 0.622747 -0.695057 0.616606 -0.694604 0.609610 -0.692730
	C 0.605226 -0.691555 0.599426 -0.689533 0.593169 -0.685921
	C 0.589248 -0.683657 0.584181 -0.680211 0.579085 -0.675114
	C 0.575891 -0.671921 0.571898 -0.667292 0.568303 -0.661065
	C 0.566050 -0.657163 0.563398 -0.651671 0.561542 -0.644743
	C 0.560378 -0.640401 0.559240 -0.634425 0.559240 -0.627270
	C 0.559240 -0.622785 0.559687 -0.616732 0.561534 -0.609837
	C 0.562692 -0.605516 0.564686 -0.599798 0.568246 -0.593631
	C 0.570478 -0.589765 0.573875 -0.584770 0.578899 -0.579747
	C 0.582047 -0.576598 0.586611 -0.572662 0.592749 -0.569118
	C 0.596596 -0.566897 0.602011 -0.564282 0.608841 -0.562451
	C 0.613122 -0.561304 0.619015 -0.560182 0.626070 -0.560182
	C 0.630492 -0.560182 0.636460 -0.560623 0.643259 -0.562444
	C 0.647520 -0.563586 0.653159 -0.565552 0.659240 -0.569063
	C 0.663052 -0.571264 0.667978 -0.574614 0.672932 -0.579568
	C 0.676038 -0.582674 0.679920 -0.587174 0.683415 -0.593228
	C 0.685606 -0.597023 0.688185 -0.602363 0.689990 -0.609100
	C 0.691122 -0.613322 0.692228 -0.619135 0.692228 -0.626093
	C 0.692228 -0.630455 0.691794 -0.636343 0.689997 -0.643049
	C 0.688870 -0.647253 0.686931 -0.652815 0.683468 -0.658815
	C 0.681296 -0.662575 0.677991 -0.667435 0.673104 -0.672322
	C 0.670040 -0.675386 0.665600 -0.679216 0.659627 -0.682665
	C 0.655883 -0.684826 0.650614 -0.687371 0.643967 -0.689152
	C 0.639800 -0.690269 0.634065 -0.691360 0.627199 -0.691360
	C 0.622894 -0.691360 0.617085 -0.690932 0.610467 -0.689159
	C 0.606318 -0.688047 0.600830 -0.686133 0.594909 -0.682715
	C 0.591198 -0.680572 0.586402 -0.677311 0.581578 -0.672487
	C 0.578554 -0.669463 0.574774 -0.665081 0.571371 -0.659186
	C 0.569237 -0.655490 0.566726 -0.650290 0.564968 -0.643729
	C 0.563866 -0.639617 0.562788 -0.633956 0.562788 -0.627178
	C 0.562788 -0.622929 0.563211 -0.617195 0.564962 -0.610662
	C 0.566059 -0.606567 0.567948 -0.601148 0.571322 -0.595303
	C 0.573438 -0.591639 0.576658 -0.586905 0.581420 -0.582143
	C 0.584405 -0.579157 0.588732 -0.575425 0.594552 -0.572065
	C 0.598200 -0.569959 0.603335 -0.567479 0.609813 -0.565743
	C 0.613874 -0.564655 0.619463 -0.563591 0.626156 -0.563591"/>
<path	style="fill:none; stroke:#FF0000; stroke-width:0.004"
	d="
	M 0.000000 0.000000
	C -0.044043 0.000000 -0.088079 0.000000 -0.132107 0.000769
	C -0.186371 0.001716 -0.240840 0.003834 -0.295184 0.008588
	C -0.365031 0.014699 -0.437019 0.025369 -0.508168 0.044433
	C -0.567916 0.060442 -0.636602 0.084921 -0.704014 0.123841
	C -0.742258 0.145921 -0.788761 0.177651 -0.833099 0.221989
	C -0.858721 0.247611 -0.889744 0.283563 -0.916662 0.330186
	C -0.932425 0.357488 -0.950640 0.395130 -0.963024 0.441348
	C -0.970350 0.468689 -0.977451 0.505799 -0.977451 0.549276
	C -0.977451 0.575196 -0.974930 0.609831 -0.964548 0.648575
	C -0.958322 0.671812 -0.947716 0.702330 -0.929007 0.734734
	C -0.917733 0.754262 -0.900698 0.779360 -0.875807 0.804250
	C -0.860748 0.819309 -0.839048 0.838061 -0.810180 0.854728
	C -0.792658 0.864845 -0.768112 0.876726 -0.737457 0.884939
	C -0.718800 0.889939 -0.693214 0.894831 -0.662867 0.894831
	C -0.644355 0.894831 -0.619441 0.893012 -0.591308 0.885474
	C -0.574113 0.880867 -0.551415 0.872972 -0.527131 0.858952
	C -0.512262 0.850367 -0.493083 0.837343 -0.473943 0.818203
	C -0.462207 0.806467 -0.447552 0.789499 -0.434457 0.766818
	C -0.426416 0.752891 -0.416954 0.733332 -0.410382 0.708806
	C -0.406342 0.693728 -0.402384 0.673008 -0.402384 0.648346
	C -0.402384 0.633167 -0.403882 0.612708 -0.410092 0.589533
	C -0.413917 0.575257 -0.420484 0.556388 -0.432171 0.536145
	C -0.439377 0.523663 -0.450326 0.507547 -0.466449 0.491424
	C -0.476399 0.481474 -0.490798 0.469041 -0.510082 0.457907
	C -0.521993 0.451031 -0.538732 0.442936 -0.559762 0.437301
	C -0.572759 0.433819 -0.590629 0.430408 -0.611935 0.430408
	C -0.625111 0.430408 -0.642879 0.431711 -0.663038 0.437112
	C -0.675511 0.440455 -0.692003 0.446196 -0.709721 0.456426
	C -0.720690 0.462758 -0.734857 0.472386 -0.749050 0.486578
	C -0.757841 0.495369 -0.768828 0.508096 -0.778680 0.525161
	C -0.784786 0.535736 -0.791974 0.550605 -0.796984 0.569304
	C -0.800090 0.580895 -0.803132 0.596840 -0.803132 0.615869
	C -0.803132 0.627671 -0.801963 0.643591 -0.797119 0.661669
	C -0.794114 0.672886 -0.788948 0.687719 -0.779739 0.703669
	C -0.774024 0.713569 -0.765332 0.726358 -0.752510 0.739180
	C -0.744549 0.747141 -0.733020 0.757093 -0.717551 0.766024
	C -0.707943 0.771570 -0.694432 0.778101 -0.677429 0.782657
	C -0.666866 0.785488 -0.652335 0.788259 -0.634981 0.788259
	C -0.624197 0.788259 -0.609647 0.787190 -0.593115 0.782760
	C -0.582839 0.780006 -0.569247 0.775272 -0.554623 0.766829
	C -0.545530 0.761579 -0.533782 0.753594 -0.521997 0.741809
	C -0.514668 0.734480 -0.505506 0.723864 -0.497279 0.709614
	C -0.492161 0.700749 -0.486134 0.688281 -0.481928 0.672583
	C -0.479311 0.662817 -0.476749 0.649378 -0.476749 0.633323
	C -0.476749 0.623332 -0.477740 0.609850 -0.481847 0.594525
	C -0.484403 0.584986 -0.488798 0.572368 -0.496640 0.558787
	C -0.501521 0.550331 -0.508948 0.539406 -0.519912 0.528441
	C -0.526740 0.521614 -0.536630 0.513079 -0.549911 0.505411
	C -0.558182 0.500636 -0.569817 0.495013 -0.584470 0.491087
	C -0.593597 0.488641 -0.606157 0.486247 -0.621167 0.486247
	C -0.630518 0.486247 -0.643137 0.487175 -0.657486 0.491020
	C -0.666426 0.493416 -0.678253 0.497536 -0.690988 0.504889
	C -0.698924 0.509470 -0.709178 0.516441 -0.719473 0.526736
	C -0.725889 0.533152 -0.733910 0.542448 -0.741119 0.554933
	C -0.745612 0.562716 -0.750903 0.573665 -0.754599 0.587458
	C -0.756903 0.596057 -0.759158 0.607890 -0.759158 0.622036
	C -0.759158 0.630857 -0.758282 0.642759 -0.754655 0.656297
	C -0.752393 0.664739 -0.748502 0.675907 -0.741557 0.687936
	C -0.737226 0.695438 -0.730636 0.705131 -0.720902 0.714865
	C -0.714830 0.720937 -0.706033 0.728527 -0.694215 0.735350
	C -0.686843 0.739607 -0.676471 0.744618 -0.663403 0.748120
	C -0.655250 0.750305 -0.644030 0.752443 -0.630615 0.752443
	C -0.622245 0.752443 -0.610948 0.751611 -0.598098 0.748168
	C -0.590079 0.746019 -0.579470 0.742322 -0.568042 0.735724
	C -0.560910 0.731607 -0.551694 0.725341 -0.542438 0.716085
	C -0.536661 0.710308 -0.529439 0.701937 -0.522945 0.690691
	C -0.518892 0.683670 -0.514120 0.673793 -0.510785 0.661347
	C -0.508703 0.653576 -0.506665 0.642883 -0.506665 0.630096
	C -0.506665 0.622113 -0.507459 0.611339 -0.510744 0.599080
	C -0.512794 0.591426 -0.516323 0.581301 -0.522621 0.570392
	C -0.526554 0.563580 -0.532538 0.554778 -0.541381 0.545935
	C -0.546902 0.540414 -0.554903 0.533511 -0.565655 0.527303
	C -0.572369 0.523427 -0.581816 0.518863 -0.593723 0.515672
	C -0.601159 0.513680 -0.611393 0.511730 -0.623633 0.511730
	C -0.631278 0.511730 -0.641596 0.512490 -0.653338 0.515636
	C -0.660672 0.517601 -0.670375 0.520982 -0.680830 0.527019
	C -0.687362 0.530790 -0.695802 0.536528 -0.704281 0.545008
	C -0.709578 0.550305 -0.716201 0.557981 -0.722157 0.568297
	C -0.725878 0.574742 -0.730259 0.583811 -0.733322 0.595242
	C -0.735236 0.602384 -0.737109 0.612214 -0.737109 0.623971
	C -0.737109 0.631318 -0.736378 0.641234 -0.733354 0.652518
	C -0.731465 0.659570 -0.728214 0.668899 -0.722409 0.678953
	C -0.718782 0.685236 -0.713261 0.693354 -0.705104 0.701512
	C -0.700005 0.706611 -0.692617 0.712984 -0.682688 0.718717
	C -0.676482 0.722300 -0.667749 0.726519 -0.656741 0.729469
	C -0.649861 0.731312 -0.640391 0.733116 -0.629063 0.733116
	C -0.621982 0.733116 -0.612426 0.732412 -0.601548 0.729498
	C -0.594749 0.727676 -0.585754 0.724541 -0.576058 0.718943
	C -0.569998 0.715444 -0.562166 0.710119 -0.554296 0.702248
	C -0.549375 0.697328 -0.543224 0.690198 -0.537691 0.680614
	C -0.534232 0.674623 -0.530159 0.666192 -0.527311 0.655563
	C -0.525530 0.648917 -0.523788 0.639771 -0.523788 0.628829
	C -0.523788 0.621987 -0.524468 0.612753 -0.527285 0.602242
	C -0.529046 0.595669 -0.532076 0.586974 -0.537487 0.577602
	C -0.540871 0.571741 -0.546021 0.564168 -0.553632 0.556557
	C -0.558392 0.551797 -0.565289 0.545847 -0.574560 0.540494
	C -0.580359 0.537146 -0.588517 0.533205 -0.598804 0.530449
	C -0.605237 0.528725 -0.614091 0.527038 -0.624684 0.527038
	C -0.631310 0.527038 -0.640252 0.527697 -0.650431 0.530425
	C -0.656798 0.532131 -0.665221 0.535067 -0.674301 0.540309
	C -0.679980 0.543588 -0.687319 0.548578 -0.694695 0.555954
	C -0.699309 0.560568 -0.705076 0.567254 -0.710266 0.576242
	C -0.713512 0.581864 -0.717334 0.589775 -0.720006 0.599751
	C -0.721678 0.605990 -0.723314 0.614578 -0.723314 0.624855
	C -0.723314 0.631282 -0.722675 0.639959 -0.720028 0.649837
	C -0.718372 0.656016 -0.715523 0.664191 -0.710435 0.673004
	C -0.707251 0.678518 -0.702407 0.685642 -0.695245 0.692804
	C -0.690765 0.697284 -0.684272 0.702885 -0.675543 0.707925
	C -0.670081 0.711078 -0.662396 0.714791 -0.652706 0.717387
	C -0.646643 0.719012 -0.638298 0.720601 -0.628312 0.720601
	C -0.622064 0.720601 -0.613632 0.719980 -0.604031 0.717407
	C -0.598024 0.715798 -0.590076 0.713027 -0.581507 0.708080
	C -0.576145 0.704985 -0.569217 0.700273 -0.562253 0.693309
	C -0.557895 0.688951 -0.552446 0.682635 -0.547544 0.674144
	C -0.544476 0.668830 -0.540864 0.661353 -0.538338 0.651924
	C -0.536757 0.646024 -0.535210 0.637903 -0.535210 0.628184
	C -0.535210 0.622102 -0.535815 0.613894 -0.538319 0.604547
	C -0.539887 0.598698 -0.542584 0.590960 -0.547401 0.582617
	C -0.550415 0.577395 -0.555004 0.570648 -0.561787 0.563864
	C -0.566032 0.559619 -0.572184 0.554312 -0.580457 0.549536
	C -0.585634 0.546547 -0.592919 0.543028 -0.602106 0.540566
	C -0.607856 0.539025 -0.615771 0.537518 -0.625243 0.537518
	C -0.631171 0.537518 -0.639172 0.538108 -0.648283 0.540549
	C -0.653986 0.542077 -0.661531 0.544707 -0.669666 0.549404
	C -0.674758 0.552344 -0.681338 0.556818 -0.687953 0.563433
	C -0.692094 0.567574 -0.697270 0.573575 -0.701929 0.581644
	C -0.704845 0.586695 -0.708278 0.593802 -0.710680 0.602766
	C -0.712183 0.608377 -0.713654 0.616099 -0.713654 0.625342
	C -0.713654 0.631128 -0.713078 0.638937 -0.710695 0.647830
	C -0.709204 0.653396 -0.706636 0.660761 -0.702051 0.668703
	C -0.699181 0.673674 -0.694812 0.680099 -0.688353 0.686558
	C -0.684310 0.690601 -0.678450 0.695656 -0.670570 0.700206
	C -0.665637 0.703054 -0.658695 0.706407 -0.649939 0.708753
	C -0.644458 0.710222 -0.636913 0.711659 -0.627884 0.711659
	C -0.622231 0.711659 -0.614600 0.711096 -0.605911 0.708768
	C -0.600471 0.707310 -0.593274 0.704801 -0.585513 0.700320
	C -0.580653 0.697515 -0.574374 0.693245 -0.568061 0.686931
	C -0.564108 0.682978 -0.559166 0.677250 -0.554718 0.669546
	C -0.551933 0.664722 -0.548655 0.657935 -0.546361 0.649374
	C -0.544924 0.644014 -0.543519 0.636636 -0.543519 0.627805
	C -0.543519 0.622276 -0.544070 0.614813 -0.546347 0.606314
	C -0.547773 0.600992 -0.550227 0.593951 -0.554611 0.586359
	C -0.557356 0.581604 -0.561534 0.575460 -0.567711 0.569283
	C -0.571579 0.565415 -0.577185 0.560579 -0.584724 0.556227
	C -0.589445 0.553501 -0.596088 0.550292 -0.604467 0.548047
	C -0.609714 0.546641 -0.616936 0.545266 -0.625580 0.545266
	C -0.630993 0.545266 -0.638300 0.545805 -0.646620 0.548034
	C -0.651831 0.549431 -0.658725 0.551834 -0.666160 0.556126
	C -0.670815 0.558814 -0.676832 0.562906 -0.682882 0.568955
	C -0.686670 0.572744 -0.691407 0.578235 -0.695670 0.585619
	C -0.698340 0.590243 -0.701483 0.596751 -0.703682 0.604959
	C -0.705060 0.610099 -0.706407 0.617175 -0.706407 0.625644
	C -0.706407 0.630948 -0.705879 0.638107 -0.703694 0.646260
	C -0.702326 0.651367 -0.699971 0.658123 -0.695764 0.665409
	C -0.693130 0.669972 -0.689119 0.675869 -0.683190 0.681798
	C -0.679476 0.685512 -0.674094 0.690155 -0.666856 0.694334
	C -0.662322 0.696952 -0.655942 0.700033 -0.647895 0.702189
	C -0.642855 0.703540 -0.635917 0.704861 -0.627613 0.704861
	C -0.622411 0.704861 -0.615391 0.704343 -0.607395 0.702201
	C -0.602387 0.700859 -0.595761 0.698549 -0.588615 0.694423
	C -0.584139 0.691839 -0.578355 0.687905 -0.572539 0.682089
	C -0.568895 0.678446 -0.564341 0.673166 -0.560241 0.666065
	C -0.557673 0.661617 -0.554649 0.655358 -0.552534 0.647462
	C -0.551209 0.642516 -0.549912 0.635709 -0.549912 0.627560
	C -0.549912 0.622456 -0.550421 0.615566 -0.552523 0.607720
	C -0.553840 0.602804 -0.556107 0.596301 -0.560157 0.589287
	C -0.562693 0.584893 -0.566555 0.579216 -0.572264 0.573507
	C -0.575840 0.569930 -0.581024 0.565459 -0.587995 0.561434
	C -0.592362 0.558913 -0.598507 0.555944 -0.606260 0.553867
	C -0.611116 0.552566 -0.617800 0.551293 -0.625802 0.551293
	C -0.630814 0.551293 -0.637580 0.551792 -0.645286 0.553857
	C -0.650114 0.555151 -0.656501 0.557377 -0.663389 0.561354
	C -0.667705 0.563846 -0.673282 0.567639 -0.678890 0.573247
	C -0.682403 0.576760 -0.686795 0.581852 -0.690749 0.588700
	C -0.693226 0.592991 -0.696142 0.599028 -0.698183 0.606644
	C -0.699462 0.611416 -0.700712 0.617983 -0.700712 0.625845
	C -0.700712 0.630771 -0.700222 0.637420 -0.698193 0.644992
	C -0.696921 0.649736 -0.694733 0.656013 -0.690825 0.662783
	C -0.688376 0.667024 -0.684648 0.672506 -0.679136 0.678017
	C -0.675683 0.681471 -0.670678 0.685788 -0.663946 0.689675
	C -0.659729 0.692110 -0.653793 0.694976 -0.646306 0.696983
	C -0.641615 0.698240 -0.635158 0.699469 -0.627429 0.699469
	C -0.622586 0.699469 -0.616049 0.698987 -0.608603 0.696992
	C -0.603938 0.695742 -0.597766 0.693590 -0.591109 0.689747
	C -0.586937 0.687338 -0.581547 0.683673 -0.576127 0.678252
	C -0.572730 0.674856 -0.568484 0.669933 -0.564662 0.663312
	C -0.562266 0.659164 -0.559447 0.653326 -0.557473 0.645961
	C -0.556237 0.641347 -0.555028 0.634996 -0.555028 0.627392
	C -0.555028 0.622627 -0.555502 0.616196 -0.557465 0.608871
	C -0.558695 0.604281 -0.560812 0.598209 -0.564593 0.591659
	C -0.566963 0.587555 -0.570570 0.582251 -0.575903 0.576918
	C -0.579246 0.573575 -0.584089 0.569397 -0.590605 0.565635
	C -0.594687 0.563278 -0.600432 0.560503 -0.607680 0.558561
	C -0.612222 0.557345 -0.618473 0.556154 -0.625957 0.556154
	C -0.630646 0.556154 -0.636976 0.556621 -0.644186 0.558553
	C -0.648704 0.559764 -0.654682 0.561848 -0.661129 0.565570
	C -0.665169 0.567903 -0.670391 0.571454 -0.675642 0.576705
	C -0.678932 0.579995 -0.683046 0.584764 -0.686749 0.591179
	C -0.689070 0.595198 -0.691802 0.600855 -0.693714 0.607991
	C -0.694913 0.612464 -0.696085 0.618619 -0.696085 0.625988
	C -0.696085 0.630606 -0.695625 0.636840 -0.693722 0.643940
	C -0.692530 0.648389 -0.690478 0.654276 -0.686812 0.660626
	C -0.684514 0.664606 -0.681017 0.669748 -0.675845 0.674920
	C -0.672604 0.678161 -0.667906 0.682213 -0.661588 0.685861
	C -0.657628 0.688147 -0.652056 0.690838 -0.645026 0.692722
	C -0.640621 0.693903 -0.634557 0.695057 -0.627297 0.695057
	C -0.622747 0.695057 -0.616606 0.694604 -0.609610 0.692730
	C -0.605226 0.691555 -0.599426 0.689533 -0.593169 0.685921
	C -0.589248 0.683657 -0.584181 0.680211 -0.579085 0.675114
	C -0.575891 0.671921 -0.571898 0.667292 -0.568303 0.661065
	C -0.566050 0.657163 -0.563398 0.651671 -0.561542 0.644743
	C -0.560378 0.640401 -0.559240 0.634425 -0.559240 0.627270
	C -0.559240 0.622785 -0.559687 0.616732 -0.561534 0.609837
	C -0.562692 0.605516 -0.564686 0.599798 -0.568246 0.593631
	C -0.570478 0.589765 -0.573875 0.584770 -0.578899 0.579747
	C -0.582047 0.576598 -0.586611 0.572662 -0.592749 0.569118
	C -0.596596 0.566897 -0.602011 0.564282 -0.608841 0.562451
	C -0.613122 0.561304 -0.619015 0.560182 -0.626070 0.560182
	C -0.630492 0.560182 -0.636460 0.560623 -0.643259 0.562444
	C -0.647520 0.563586 -0.653159 0.565552 -0.659240 0.569063
	C -0.663052 0.571264 -0.667978 0.574614 -0.672932 0.579568
	C -0.676038 0.582674 -0.679920 0.587174 -0.683415 0.593228
	C -0.685606 0.597023 -0.688185 0.602363 -0.689990 0.609100
	C -0.691122 0.613322 -0.692228 0.619135 -0.692228 0.626093
	C -0.692228 0.630455 -0.691794 0.636343 -0.689997 0.643049
	C -0.688870 0.647253 -0.686931 0.652815 -0.683468 0.658815
	C -0.681296 0.662575 -0.677991 0.667435 -0.673104 0.672322
	C -0.670040 0.675386 -0.665600 0.679216 -0.659627 0.682665
	C -0.655883 0.684826 -0.650614 0.687371 -0.643967 0.689152
	C -0.639800 0.690269 -0.634065 0.691360 -0.627199 0.691360
	C -0.622894 0.691360 -0.617085 0.690932 -0.610467 0.689159
	C -0.606318 0.688047 -0.600830 0.686133 -0.594909 0.682715
	C -0.591198 0.680572 -0.586402 0.677311 -0.581578 0.672487
	C -0.578554 0.669463 -0.574774 0.665081 -0.571371 0.659186
	C -0.569237 0.655490 -0.566726 0.650290 -0.564968 0.643729
	C -0.563866 0.639617 -0.562788 0.633956 -0.562788 0.627178
	C -0.562788 0.622929 -0.563211 0.617195 -0.564962 0.610662
	C -0.566059 0.606567 -0.567948 0.601148 -0.571322 0.595303
	C -0.573438 0.591639 -0.576658 0.586905 -0.581420 0.582143
	C -0.584405 0.579157 -0.588732 0.575425 -0.594552 0.572065
	C -0.598200 0.569959 -0.603335 0.567479 -0.609813 0.565743
	C -0.613874 0.564655 -0.619463 0.563591 -0.626156 0.563591"/>
</svg>