<?xml version="1.0" encoding="utf-8"?>
<!-- Generator: Adobe Illustrator 21.0.0, SVG Export Plug-In . SVG Version: 6.00 Build 0)  -->
<svg version="1.1" id="图层_1" xmlns="http://www.w3.org/2000/svg" xmlns:xlink="http://www.w3.org/1999/xlink" x="0px" y="0px"
	 viewBox="0 0 90.3 69.6" style="enable-background:new 0 0 90.3 69.6;" xml:space="preserve">
<style type="text/css">
	.st0{fill:#FFFFFF;}
</style>
<g>
	<polygon class="st0" points="86,1.3 87.8,4.4 37.5,66.6 7.5,26.6 11.5,24.3 38.5,48.6 	"/>
	<path d="M86,1.3l1.9,3l0,0l0,0L75.5,20.2L63.1,35.9L50.7,51.5c-4.1,5.2-8.3,10.4-12.5,15.6L37.5,68l-0.7-0.9l-15.1-20l-7.5-10
		l-7.5-10l-0.7-0.9L7,25.7l4-2.3l0.6-0.3l0.5,0.5L39.1,48l-1.1,0l24.1-23.5L86,1.3z M86,1.3L62.4,25.5L39.1,49.2l-0.5,0.6l-0.6-0.5
		L10.9,25l1.1,0.1l-4,2.3L8.3,26l7.5,10l7.5,10l14.9,20l-1.4,0c4.2-5.2,8.4-10.4,12.6-15.5l12.7-15.4l12.7-15.4L87.7,4.3l0,0.1
		L86,1.3z"/>
</g>
</svg>
